<svg width="109" height="123" viewBox="0 0 109 123" fill="none" xmlns="http://www.w3.org/2000/svg">
    <g opacity="0.6">
        <path
            d="M52.1986 2.43586C53.2641 -0.0119952 56.7359 -0.0119952 57.8014 2.43586C58.6349 4.35083 61.1013 4.88364 62.651 3.48354L62.8706 3.28515C64.8083 1.53454 67.8994 2.95774 67.8293 5.56816C67.7738 7.63182 69.7891 9.12089 71.7454 8.46177L72.1523 8.3247C74.5919 7.50275 76.8049 10.0454 75.6541 12.3483C74.7376 14.1823 75.973 16.3602 78.0174 16.5146L78.2963 16.5357C80.8693 16.7301 81.8855 19.9668 79.8852 21.5969C78.2922 22.8952 78.557 25.4038 80.3816 26.3493C82.6891 27.545 82.3539 30.953 79.8531 31.6605L79.7339 31.6942C77.761 32.2524 76.998 34.6432 78.2828 36.2409C79.8944 38.2451 78.2499 41.1924 75.6981 40.8736L75.3134 40.8256C73.274 40.5708 71.6156 42.4448 72.1164 44.438C72.7471 46.9483 70.0447 48.9791 67.809 47.6749L67.466 47.4749C65.6726 46.4287 63.3831 47.465 62.9856 49.5028C62.4801 52.0941 59.1249 52.8315 57.5795 50.6909L57.4958 50.575C56.2671 48.8731 53.7329 48.8731 52.5042 50.575L52.4205 50.6909C50.8751 52.8315 47.5199 52.0941 47.0144 49.5028C46.6169 47.465 44.3274 46.4287 42.534 47.4749L42.191 47.6749C39.9553 48.9791 37.2529 46.9483 37.8836 44.438C38.3844 42.4448 36.726 40.5708 34.6866 40.8256L34.3019 40.8736C31.7501 41.1924 30.1056 38.2451 31.7172 36.2409C33.002 34.6432 32.239 32.2524 30.2661 31.6942L30.1469 31.6605C27.6461 30.953 27.3109 27.545 29.6184 26.3493C31.443 25.4038 31.7078 22.8952 30.1148 21.5969C28.1145 19.9668 29.1307 16.7301 31.7037 16.5357L31.9826 16.5146C34.027 16.3602 35.2624 14.1823 34.3459 12.3483C33.1951 10.0454 35.4081 7.50275 37.8477 8.3247L38.2546 8.46177C40.2109 9.12089 42.2262 7.63182 42.1707 5.56816C42.1006 2.95774 45.1917 1.53454 47.1294 3.28515L47.349 3.48353C48.8987 4.88364 51.3651 4.35083 52.1986 2.43586Z"
            fill="#D9D9D9" />
        <path
            d="M109 123C109 115.383 107.59 107.841 104.851 100.804C102.113 93.7675 98.0981 87.3736 93.0373 81.9878C87.9765 76.602 81.9685 72.3298 75.3562 69.415C68.744 66.5002 61.657 65 54.5 65C47.343 65 40.256 66.5002 33.6437 69.415C27.0315 72.3298 21.0235 76.602 15.9627 81.9878C10.9019 87.3736 6.88744 93.7675 4.14856 100.804C1.40968 107.841 -6.25688e-07 115.383 0 123H109Z"
            fill="#E3E5E7" />
    </g>
</svg>